Coordinates
version=1
nRows=25
nColumns=28
inDegrees=yes

Units are S.I. units (second, meters, Newtons, ...)
Angles are in degrees.

endheader
time	pelvis_tilt	pelvis_list	pelvis_rotation	pelvis_tx	pelvis_ty	pelvis_tz	hip_flexion_r	hip_adduction_r	hip_rotation_r	knee_angle_r	ankle_angle_r	subtalar_angle_r	mtp_angle_r	hip_flexion_l	hip_adduction_l	hip_rotation_l	knee_angle_l	socket_flexion	socket_adduction	socket_rotation	socket_tx	socket_ty	socket_tz	foot_flex	lumbar_extension	lumbar_bending	lumbar_rotation
      0.32083333	      4.65629807	     -5.20009656	    -10.68406034	     -0.34942023	      1.02700940	      0.24942281	     14.35768699	      4.83173569	      0.70168950	    -67.48904332	     -6.69295932	    -24.29092267	     16.11585194	     -3.44725080	     -3.63817621	      5.14732473	     -7.46446006	      0.00000000	      0.00000000	      0.00000000	      0.00000000	     -0.01937525	      0.00000000	      0.23513900	    -17.35237879	      1.27678380	     10.71089570
      0.32500000	      4.65050169	     -5.43765372	    -10.35213058	     -0.34443436	      1.02735691	      0.24907382	     14.79702392	      5.05859745	      0.25273734	    -67.04015783	     -5.85308659	    -23.82900145	     16.39903377	     -3.79802565	     -3.86935051	      5.40715219	     -7.36496643	      0.00000000	      0.00000000	      0.00000000	      0.00000000	     -0.01954922	      0.00000000	      0.30271700	    -17.38176445	      1.62362886	     10.35920791
      0.32916667	      4.68362486	     -5.42266622	    -10.29000845	     -0.33993283	      1.02765601	      0.24912934	     15.34802224	      5.10318560	      0.15690298	    -66.69815033	     -5.80523070	    -23.79259272	     16.41186913	     -4.13582481	     -3.80804295	      5.41632064	     -7.29138026	      0.00000000	      0.00000000	      0.00000000	      0.00000000	     -0.01939543	      0.00000000	      0.37442287	    -17.49876726	      1.61494407	     10.33264269
      0.33333333	      4.78622665	     -5.65042148	     -9.79148816	     -0.33463231	      1.02805310	      0.24840429	     15.60928544	      5.13406553	     -0.55329906	    -66.13465451	     -5.05930729	    -22.56950484	     16.84726138	     -4.62640533	     -4.01446867	      5.88729437	     -7.10854073	      0.00000000	      0.00000000	      0.00000000	      0.00000000	     -0.01954218	      0.00000000	      0.52512002	    -17.57855332	      2.03628992	      9.61556041
      0.33750000	      4.81328377	     -5.62876337	     -9.74199627	     -0.33016501	      1.02829109	      0.24852547	     16.15422989	      5.16993330	     -0.65156589	    -65.72589204	     -4.99047190	    -22.56119748	     16.85791128	     -4.95508675	     -3.95459615	      5.87721989	     -7.04565987	      0.00000000	      0.00000000	      0.00000000	      0.00000000	     -0.01936338	      0.00000000	      0.58856094	    -17.69438137	      2.00383481	      9.60013386
      0.34166667	      4.81872506	     -5.65815987	     -9.61314982	     -0.32487957	      1.02859403	      0.24862858	     16.56011252	      5.18614570	     -0.91243828	    -65.13835822	     -4.69604675	    -22.46483700	     16.93587012	     -5.40003491	     -3.96329536	      5.90854867	     -6.80028812	      0.00000000	      0.00000000	      0.00000000	      0.00000000	     -0.01910768	      0.00000000	      0.75608254	    -17.59498639	      2.05560695	      9.51427650
      0.34583333	      4.98836149	     -5.92126644	     -9.09366510	     -0.31996178	      1.02899101	      0.24784767	     16.73033903	      5.24976912	     -1.60973911	    -64.45151278	     -3.99060713	    -21.40732716	     17.32713372	     -5.89178020	     -4.21218063	      6.38721245	     -6.71404688	      0.00000000	      0.00000000	      0.00000000	      0.00000000	     -0.01935166	      0.00000000	      0.83912894	    -17.85885243	      2.50583618	      8.86036057
      0.35000000	      4.99540374	     -5.90419930	     -9.01568958	     -0.31512513	      1.02916230	      0.24802029	     17.18445224	      5.25465372	     -1.76973180	    -63.87045071	     -3.82860616	    -21.38376178	     17.35691329	     -6.26114481	     -4.17279841	      6.38431095	     -6.56480925	      0.00000000	      0.00000000	      0.00000000	      0.00000000	     -0.01915063	      0.00000000	      0.95722733	    -17.86186512	      2.47664440	      8.82661280
      0.35416667	      5.05201571	     -6.08949266	     -8.69044615	     -0.31020001	      1.02938708	      0.24769207	     17.48352826	      5.34964644	     -2.25538974	    -63.15175417	     -3.31093127	    -21.01402908	     17.52772634	     -6.66727162	     -4.36240296	      6.66119737	     -6.44130490	      0.00000000	      0.00000000	      0.00000000	      0.00000000	     -0.01923264	      0.00000000	      1.05787319	    -17.95707123	      2.77120027	      8.56875713
      0.35833333	      5.05834768	     -6.05577463	     -8.62126247	     -0.30540844	      1.02951876	      0.24790263	     17.91233609	      5.33110166	     -2.41159752	    -62.48858038	     -3.21048061	    -20.96885511	     17.53886194	     -7.02871094	     -4.30998935	      6.65188341	     -6.30449078	      0.00000000	      0.00000000	      0.00000000	      0.00000000	     -0.01902124	      0.00000000	      1.17580102	    -17.96474164	      2.71671833	      8.51448963
      0.36250000	      5.06181344	     -6.04831560	     -8.51728705	     -0.30055710	      1.02961520	      0.24803646	     18.30753407	      5.32033836	     -2.61571611	    -61.76852985	     -3.04156534	    -20.91215077	     17.56169767	     -7.38800375	     -4.28722583	      6.67550725	     -6.16655303	      0.00000000	      0.00000000	      0.00000000	      0.00000000	     -0.01884638	      0.00000000	      1.29771641	    -17.96365957	      2.70939976	      8.44882076
      0.36666667	      5.22723497	     -6.35772768	     -7.94621857	     -0.29558554	      1.02993931	      0.24725443	     18.37464699	      5.40324024	     -3.41163876	    -60.83802428	     -2.49505797	    -20.25010059	     17.70415464	     -7.87785631	     -4.62565560	      7.19967823	     -6.06469308	      0.00000000	      0.00000000	      0.00000000	      0.00000000	     -0.01909462	      0.00000000	      1.40116503	    -18.20343624	      3.22801170	      7.87091859
      0.37083333	      5.22462718	     -6.30049151	     -7.88879985	     -0.29084389	      1.02998382	      0.24747804	     18.77033658	      5.35436828	     -3.55917805	    -60.07083295	     -2.37573932	    -20.23359705	     17.70243626	     -8.21688436	     -4.55052167	      7.17416466	     -5.94245699	      0.00000000	      0.00000000	      0.00000000	      0.00000000	     -0.01884849	      0.00000000	      1.51703834	    -18.21192983	      3.15284953	      7.82635095
      0.37500000	      5.21794071	     -6.27078504	     -7.79389095	     -0.28604842	      1.03000159	      0.24764451	     19.13475115	      5.32017320	     -3.75613548	    -59.24593934	     -2.20569695	    -20.21059590	     17.70430063	     -8.55166867	     -4.51166891	      7.19144003	     -5.82192707	      0.00000000	      0.00000000	      0.00000000	      0.00000000	     -0.01865049	      0.00000000	      1.63871024	    -18.20934580	      3.12133827	      7.77368844
      0.37916667	      5.20758771	     -6.25893776	     -7.66788058	     -0.28123394	      1.02999826	      0.24775186	     19.46489049	      5.29228860	     -3.98873513	    -58.36121046	     -2.00838007	    -20.18194435	     17.70393468	     -8.87708614	     -4.49399007	      7.23991610	     -5.70967214	      0.00000000	      0.00000000	      0.00000000	      0.00000000	     -0.01847594	      0.00000000	      1.76109322	    -18.19734140	      3.11741902	      7.70953175
      0.38333333	      5.19976007	     -6.26609028	     -7.51439648	     -0.27643634	      1.02997622	      0.24781667	     19.77273634	      5.26788701	     -4.26127427	    -57.43109874	     -1.79363475	    -20.14600767	     17.69717898	     -9.19804406	     -4.50641456	      7.32252303	     -5.60559576	      0.00000000	      0.00000000	      0.00000000	      0.00000000	     -0.01834047	      0.00000000	      1.88342490	    -18.20022051	      3.15000312	      7.62776359
      0.38750000	      5.55239202	     -6.63178003	     -6.75109386	     -0.27158667	      1.03044513	      0.24668955	     19.51047216	      5.28205327	     -5.30825372	    -56.25066121	     -1.28231941	    -19.53465638	     17.39478174	     -9.83829350	     -4.92711185	      8.02556494	     -5.53092354	      0.00000000	      0.00000000	      0.00000000	      0.00000000	     -0.01863011	      0.00000000	      1.99312758	    -18.67589447	      3.79037212	      6.74507938
      0.39166667	      5.51258141	     -6.55750924	     -6.70321232	     -0.26687878	      1.03031501	      0.24694327	     19.85455434	      5.21771843	     -5.45695680	    -55.30102722	     -1.14710020	    -19.55751617	     17.37044006	    -10.12042707	     -4.84290485	      7.99157665	     -5.43991110	      0.00000000	      0.00000000	      0.00000000	      0.00000000	     -0.01842234	      0.00000000	      2.10535219	    -18.64424785	      3.69847259	      6.73933408
      0.39583333	      5.46845518	     -6.49943677	     -6.62151039	     -0.26213605	      1.03016630	      0.24713618	     20.16510866	      5.16074250	     -5.64263984	    -54.29076472	     -0.98420476	    -19.58804312	     17.33980446	    -10.39457623	     -4.78259737	      7.99892495	     -5.35281826	      0.00000000	      0.00000000	      0.00000000	      0.00000000	     -0.01822172	      0.00000000	      2.22869799	    -18.60303366	      3.63657500	      6.72639373
      0.40000000	      5.42217978	     -6.46142098	     -6.50652432	     -0.25737986	      1.03001183	      0.24727994	     20.44335802	      5.11371638	     -5.86956846	    -53.22199102	     -0.80401561	    -19.62549475	     17.29736194	    -10.66071387	     -4.75082351	      8.04819389	     -5.27421884	      0.00000000	      0.00000000	      0.00000000	      0.00000000	     -0.01804159	      0.00000000	      2.35576478	    -18.56006962	      3.60997380	      6.70149171
      0.40416667	      5.48535491	     -6.80407720	     -5.90433467	     -0.25245777	      1.03000625	      0.24649469	     20.42671470	      5.23466419	     -6.74317157	    -51.89595097	     -0.56248368	    -19.66386749	     16.94358846	    -11.00597363	     -5.19505033	      8.61928010	     -5.21485035	      0.00000000	      0.00000000	      0.00000000	      0.00000000	     -0.01839436	      0.00000000	      2.48408586	    -18.67625480	      4.18253629	      6.28718686
      0.40833333	      5.44104368	     -6.69254088	     -5.86413083	     -0.24780106	      1.02976738	      0.24676228	     20.70421972	      5.13598916	     -6.87998213	    -50.81191965	     -0.43055898	    -19.69139489	     16.89606624	    -11.26320427	     -5.07024386	      8.56826358	     -5.15193524	      0.00000000	      0.00000000	      0.00000000	      0.00000000	     -0.01819329	      0.00000000	      2.59089713	    -18.64650306	      4.05436885	      6.24692532
      0.41250000	      5.38813952	     -6.60159707	     -5.78790422	     -0.24310955	      1.02953637	      0.24700103	     20.94908247	      5.05626886	     -7.05408012	    -49.66075054	     -0.27470720	    -19.73361741	     16.83769306	    -11.50886810	     -4.97892623	      8.57839585	     -5.08917351	      0.00000000	      0.00000000	      0.00000000	      0.00000000	     -0.01795486	      0.00000000	      2.71713207	    -18.60095846	      3.95968802	      6.21127870
      0.41666667	      5.32690301	     -6.53025261	     -5.68072232	     -0.23839670	      1.02926837	      0.24717035	     21.17025163	      4.98461853	     -7.26333737	    -48.45684418	     -0.10947696	    -19.78726659	     16.76681369	    -11.74003298	     -4.91520449	      8.62473898	     -5.03435237	      0.00000000	      0.00000000	      0.00000000	      0.00000000	     -0.01776604	      0.00000000	      2.84437912	    -18.54720823	      3.89424207	      6.17335074
      0.42083333	      5.34940321	     -6.85321821	     -5.07499052	     -0.23353786	      1.02914282	      0.24642093	     21.11475741	      5.11779218	     -8.10373786	    -46.96291968	      0.04191455	    -19.97977937	     16.27797589	    -12.01075992	     -5.36189555	      9.21474866	     -5.01662932	      0.00000000	      0.00000000	      0.00000000	      0.00000000	     -0.01812999	      0.00000000	      2.98518087	    -18.61861206	      4.45050728	      5.79112540
